<svg xmlns="http://www.w3.org/2000/svg" width="800" height="246" viewBox="0 0 800 246" font-family="ui-sans-serif, -apple-system, 'Segoe UI', Helvetica, Arial, sans-serif">
<rect x="0.5" y="0.5" width="799" height="245" rx="12" fill="#ffffff" stroke="#d0d7de"/>
<text x="24" y="38" font-size="18" font-weight="600" fill="#1f2328">Languages</text>
<text x="776" y="38" font-size="13" text-anchor="end" fill="#59636e">72 repositories · 1.1M lines of code · private &amp; org repos included</text>
<clipPath id="bar"><rect x="24" y="54" width="752" height="12" rx="6"/></clipPath>
<rect x="24.0" y="54" width="325.1" height="12" fill="#dea584" clip-path="url(#bar)"/>
<rect x="349.1" y="54" width="269.3" height="12" fill="#3178c6" clip-path="url(#bar)"/>
<rect x="618.3" y="54" width="72.9" height="12" fill="#f1e05a" clip-path="url(#bar)"/>
<rect x="691.3" y="54" width="61.1" height="12" fill="#00B4AB" clip-path="url(#bar)"/>
<rect x="752.4" y="54" width="12.2" height="12" fill="#3572A5" clip-path="url(#bar)"/>
<rect x="764.6" y="54" width="8.4" height="12" fill="#ff3e00" clip-path="url(#bar)"/>
<rect x="773.0" y="54" width="1.3" height="12" fill="#00ADD8" clip-path="url(#bar)"/>
<rect x="774.3" y="54" width="0.8" height="12" fill="#e38c00" clip-path="url(#bar)"/>
<rect x="775.1" y="54" width="0.9" height="12" fill="#8b949e" clip-path="url(#bar)"/>
<circle cx="30" cy="92" r="6" fill="#dea584"/>
<text x="44" y="96" font-size="14" fill="#1f2328">Rust</text>
<text x="174" y="96" font-size="14" fill="#59636e">43.2%</text>
<text x="239" y="96" font-size="14" fill="#59636e">467k lines</text>
<circle cx="406" cy="92" r="6" fill="#3178c6"/>
<text x="420" y="96" font-size="14" fill="#1f2328">TypeScript</text>
<text x="550" y="96" font-size="14" fill="#59636e">35.8%</text>
<text x="615" y="96" font-size="14" fill="#59636e">387k lines</text>
<circle cx="30" cy="118" r="6" fill="#f1e05a"/>
<text x="44" y="122" font-size="14" fill="#1f2328">JavaScript</text>
<text x="174" y="122" font-size="14" fill="#59636e">9.7%</text>
<text x="239" y="122" font-size="14" fill="#59636e">105k lines</text>
<circle cx="406" cy="118" r="6" fill="#00B4AB"/>
<text x="420" y="122" font-size="14" fill="#1f2328">Dart</text>
<text x="550" y="122" font-size="14" fill="#59636e">8.1%</text>
<text x="615" y="122" font-size="14" fill="#59636e">88k lines</text>
<circle cx="30" cy="144" r="6" fill="#3572A5"/>
<text x="44" y="148" font-size="14" fill="#1f2328">Python</text>
<text x="174" y="148" font-size="14" fill="#59636e">1.6%</text>
<text x="239" y="148" font-size="14" fill="#59636e">18k lines</text>
<circle cx="406" cy="144" r="6" fill="#ff3e00"/>
<text x="420" y="148" font-size="14" fill="#1f2328">Svelte</text>
<text x="550" y="148" font-size="14" fill="#59636e">1.1%</text>
<text x="615" y="148" font-size="14" fill="#59636e">12k lines</text>
<circle cx="30" cy="170" r="6" fill="#00ADD8"/>
<text x="44" y="174" font-size="14" fill="#1f2328">Go</text>
<text x="174" y="174" font-size="14" fill="#59636e">0.2%</text>
<text x="239" y="174" font-size="14" fill="#59636e">2k lines</text>
<circle cx="406" cy="170" r="6" fill="#e38c00"/>
<text x="420" y="174" font-size="14" fill="#1f2328">SQL</text>
<text x="550" y="174" font-size="14" fill="#59636e">0.1%</text>
<text x="615" y="174" font-size="14" fill="#59636e">1k lines</text>
<circle cx="30" cy="196" r="6" fill="#8b949e"/>
<text x="44" y="200" font-size="14" fill="#1f2328">Other</text>
<text x="174" y="200" font-size="14" fill="#59636e">0.1%</text>
<text x="239" y="200" font-size="14" fill="#59636e">1k lines</text>
</svg>
